{
  "accessors": [
    {
      "bufferView": 1,
      "componentType": 5126,
      "count": 65532,
      "max": [
        10.528299331665039,
        12.83799934387207,
        5.005999565124512
      ],
      "min": [
        0.0,
        0.6733999252319336,
        0.0
      ],
      "type": "VEC3"
    },
    {
      "bufferView": 1,
      "byteOffset": 786384,
      "componentType": 5126,
      "count": 65532,
      "max": [
        1.0,
        1.0,
        1.0
      ],
      "min": [
        -1.0,
        -1.0,
        -1.0
      ],
      "type": "VEC3"
    },
    {
      "bufferView": 0,
      "componentType": 5125,
      "count": 308070,
      "type": "SCALAR"
    },
    {
      "bufferView": 1,
      "byteOffset": 1572768,
      "componentType": 5126,
      "count": 1490,
      "max": [
        10.13909912109375,
        12.795299530029297,
        3.4243993759155273
      ],
      "min": [
        0.01900005340576172,
        1.428999900817871,
        1.3380999565124512
      ],
      "type": "VEC3"
    },
    {
      "bufferView": 1,
      "byteOffset": 1590648,
      "componentType": 5126,
      "count": 1490,
      "max": [
        0.8908937573432922,
        0.9838664531707764,
        0.9985088109970093
      ],
      "min": [
        -0.9894983172416687,
        -0.9999988079071045,
        -1.0
      ],
      "type": "VEC3"
    },
    {
      "bufferView": 0,
      "byteOffset": 1232280,
      "componentType": 5125,
      "count": 6705,
      "type": "SCALAR"
    },
    {
      "bufferView": 1,
      "byteOffset": 1608528,
      "componentType": 5126,
      "count": 192,
      "max": [
        7.643299579620361,
        3.1198997497558594,
        4.881799697875977
      ],
      "min": [
        2.8849997520446777,
        0.0,
        0.12349987030029297
      ],
      "type": "VEC3"
    },
    {
      "bufferView": 1,
      "byteOffset": 1610832,
      "componentType": 5126,
      "count": 192,
      "max": [
        0.7501189708709717,
        0.7313627600669861,
        0.7501189708709717
      ],
      "min": [
        -0.7501189708709717,
        -1.0,
        -0.7501189708709717
      ],
      "type": "VEC3"
    },
    {
      "bufferView": 0,
      "byteOffset": 1259100,
      "componentType": 5125,
      "count": 234,
      "type": "SCALAR"
    }
  ],
  "asset": {
    "extras": {
      "author": "T-FLEX CAD ST (Free) (https://sketchfab.com/tflexcad)",
      "license": "CC-BY-4.0 (http://creativecommons.org/licenses/by/4.0/)",
      "source": "https://sketchfab.com/3d-models/ring-4d38f2907114426b8b9b1068ea9e2f14",
      "title": "Ring"
    },
    "generator": "Sketchfab-12.67.0",
    "version": "2.0"
  },
  "bufferViews": [
    {
      "buffer": 0,
      "byteLength": 1260036,
      "name": "floatBufferViews",
      "target": 34963
    },
    {
      "buffer": 0,
      "byteLength": 1613136,
      "byteOffset": 1260036,
      "byteStride": 12,
      "name": "floatBufferViews",
      "target": 34962
    }
  ],
  "buffers": [
    {
      "byteLength": 2873172,
      "uri": "scene.bin"
    }
  ],
  "materials": [
    {
      "doubleSided": true,
      "name": "02___Default",
      "pbrMetallicRoughness": {
        "baseColorFactor": [
          1.0,
          0.5176,
          0.0,
          1.0
        ],
        "roughnessFactor": 0.05
      }
    },
    {
      "alphaMode": "BLEND",
      "doubleSided": true,
      "name": "03___Default",
      "pbrMetallicRoughness": {
        "baseColorFactor": [
          0.11939222858545763,
          0.11060147894174437,
          0.16,
          0.92
        ],
        "metallicFactor": 0.0,
        "roughnessFactor": 0.09999999999999998
      }
    }
  ],
  "meshes": [
    {
      "name": "Object_0",
      "primitives": [
        {
          "attributes": {
            "NORMAL": 1,
            "POSITION": 0
          },
          "indices": 2,
          "material": 0,
          "mode": 4
        }
      ]
    },
    {
      "name": "Object_1",
      "primitives": [
        {
          "attributes": {
            "NORMAL": 4,
            "POSITION": 3
          },
          "indices": 5,
          "material": 0,
          "mode": 4
        }
      ]
    },
    {
      "name": "Object_2",
      "primitives": [
        {
          "attributes": {
            "NORMAL": 7,
            "POSITION": 6
          },
          "indices": 8,
          "material": 1,
          "mode": 4
        }
      ]
    }
  ],
  "nodes": [
    {
      "children": [
        1
      ],
      "matrix": [
        0.05767849087715149,
        0.0,
        0.0,
        0.0,
        0.0,
        -0.057666379134454715,
        -0.0011819094174973638,
        0.0,
        0.0,
        0.0011819094174973638,
        -0.057666379134454715,
        0.0,
        0.0,
        -0.406832933425907,
        16.435129165649414,
        1.0
      ],
      "name": "Sketchfab_model"
    },
    {
      "children": [
        2
      ],
      "matrix": [
        1.0,
        0.0,
        0.0,
        0.0,
        0.0,
        1.0,
        0.0,
        0.0,
        0.0,
        0.0,
        1.0,
        0.0,
        5.006800174713135,
        -14.940899848937988,
        5.681300163269043,
        1.0
      ],
      "name": "TheRing.obj.cleaner.gles"
    },
    {
      "children": [
        3,
        4,
        5
      ],
      "name": "Object_2"
    },
    {
      "mesh": 0,
      "name": "Object_3"
    },
    {
      "mesh": 1,
      "name": "Object_4"
    },
    {
      "mesh": 2,
      "name": "Object_5"
    }
  ],
  "scene": 0,
  "scenes": [
    {
      "name": "Sketchfab_Scene",
      "nodes": [
        0
      ]
    }
  ]
}
