{
	"asset":{
		"generator":"Khronos glTF Blender I/O v3.6.27",
		"version":"2.0"
	},
	"scene":0,
	"scenes":[
		{
			"name":"Scene",
			"nodes":[
				10
			]
		}
	],
	"nodes":[
		{
			"mesh":0,
			"name":"Group38558_Retopo_Material #33_0"
		},
		{
			"children":[
				0
			],
			"name":"Group38558_Retopo",
			"translation":[
				-0.04452937841415405,
				1.2543267011642456,
				-2.4277708530426025
			]
		},
		{
			"mesh":1,
			"name":"Group57578_Retopo_Material #33_0"
		},
		{
			"children":[
				2
			],
			"name":"Group57578_Retopo",
			"translation":[
				-0.04986559599637985,
				0.8486051559448242,
				-0.4124046862125397
			]
		},
		{
			"mesh":2,
			"name":"Object_1_Material #34_0"
		},
		{
			"children":[
				4
			],
			"name":"Object_1",
			"translation":[
				-0.04982436075806618,
				0.8675009608268738,
				2.0299320220947266
			]
		},
		{
			"mesh":3,
			"name":"Object_24_Material #34_0"
		},
		{
			"children":[
				6
			],
			"name":"Object_24",
			"translation":[
				-0.04452984780073166,
				2.077293872833252,
				-0.4571593701839447
			]
		},
		{
			"children":[
				1,
				3,
				5,
				7
			],
			"name":"RootNode"
		},
		{
			"children":[
				8
			],
			"name":"1935a2e0c54f49f68abfc53ac97c1f78.fbx",
			"rotation":[
				0.7056825757026672,
				0,
				0,
				0.7085282206535339
			],
			"translation":[
				0,
				0,
				-0.5713821649551392
			]
		},
		{
			"children":[
				9
			],
			"name":"Sketchfab_model"
		}
	],
	"materials":[
		{
			"doubleSided":true,
			"name":"Material_33",
			"pbrMetallicRoughness":{
				"baseColorFactor":[
					0.33708080649375916,
					0.33708080649375916,
					0.33708080649375916,
					1
				],
				"roughnessFactor":0.17244665324687958
			}
		},
		{
			"alphaMode":"BLEND",
			"doubleSided":true,
			"name":"Material_34",
			"pbrMetallicRoughness":{
				"baseColorFactor":[
					1,
					1,
					1,
					0.5139100551605225
				],
				"roughnessFactor":0
			}
		}
	],
	"meshes":[
		{
			"name":"Group38558_Retopo_Material #33_0",
			"primitives":[
				{
					"attributes":{
						"POSITION":0,
						"NORMAL":1
					},
					"indices":2,
					"material":0
				}
			]
		},
		{
			"name":"Group57578_Retopo_Material #33_0",
			"primitives":[
				{
					"attributes":{
						"POSITION":3,
						"NORMAL":4
					},
					"indices":5,
					"material":0
				}
			]
		},
		{
			"name":"Object_1_Material #34_0",
			"primitives":[
				{
					"attributes":{
						"POSITION":6,
						"NORMAL":7,
						"TEXCOORD_0":8,
						"TEXCOORD_1":9,
						"TEXCOORD_2":10,
						"TEXCOORD_3":11,
						"TEXCOORD_4":12,
						"TEXCOORD_5":13,
						"TEXCOORD_6":14,
						"TEXCOORD_7":15
					},
					"indices":16,
					"material":1
				}
			]
		},
		{
			"name":"Object_24_Material #34_0",
			"primitives":[
				{
					"attributes":{
						"POSITION":17,
						"NORMAL":18,
						"TEXCOORD_0":19,
						"TEXCOORD_1":20,
						"TEXCOORD_2":21,
						"TEXCOORD_3":22,
						"TEXCOORD_4":23,
						"TEXCOORD_5":24,
						"TEXCOORD_6":25,
						"TEXCOORD_7":26
					},
					"indices":27,
					"material":1
				}
			]
		}
	],
	"accessors":[
		{
			"bufferView":0,
			"componentType":5126,
			"count":20055,
			"max":[
				1.9211835861206055,
				-0.6696495413780212,
				3.888922929763794
			],
			"min":[
				-1.9199929237365723,
				-1.1200309991836548,
				0.2905910611152649
			],
			"type":"VEC3"
		},
		{
			"bufferView":1,
			"componentType":5126,
			"count":20055,
			"type":"VEC3"
		},
		{
			"bufferView":2,
			"componentType":5123,
			"count":116166,
			"type":"SCALAR"
		},
		{
			"bufferView":3,
			"componentType":5126,
			"count":5643,
			"max":[
				1.7655322551727295,
				0.5391436815261841,
				2.5805931091308594
			],
			"min":[
				-1.7664358615875244,
				-0.5027273893356323,
				-1.7684237957000732
			],
			"type":"VEC3"
		},
		{
			"bufferView":4,
			"componentType":5126,
			"count":5643,
			"type":"VEC3"
		},
		{
			"bufferView":5,
			"componentType":5123,
			"count":31704,
			"type":"SCALAR"
		},
		{
			"bufferView":6,
			"componentType":5126,
			"count":185,
			"max":[
				0.410547137260437,
				0.41061756014823914,
				0.12170486152172089
			],
			"min":[
				-0.410547137260437,
				-0.41061756014823914,
				-0.4797504246234894
			],
			"type":"VEC3"
		},
		{
			"bufferView":7,
			"componentType":5126,
			"count":185,
			"type":"VEC3"
		},
		{
			"bufferView":8,
			"componentType":5126,
			"count":185,
			"type":"VEC2"
		},
		{
			"bufferView":9,
			"componentType":5126,
			"count":185,
			"type":"VEC2"
		},
		{
			"bufferView":10,
			"componentType":5126,
			"count":185,
			"type":"VEC2"
		},
		{
			"bufferView":11,
			"componentType":5126,
			"count":185,
			"type":"VEC2"
		},
		{
			"bufferView":12,
			"componentType":5126,
			"count":185,
			"type":"VEC2"
		},
		{
			"bufferView":13,
			"componentType":5126,
			"count":185,
			"type":"VEC2"
		},
		{
			"bufferView":14,
			"componentType":5126,
			"count":185,
			"type":"VEC2"
		},
		{
			"bufferView":15,
			"componentType":5126,
			"count":185,
			"type":"VEC2"
		},
		{
			"bufferView":16,
			"componentType":5123,
			"count":252,
			"type":"SCALAR"
		},
		{
			"bufferView":17,
			"componentType":5126,
			"count":18329,
			"max":[
				1.8899452686309814,
				-1.4966580867767334,
				1.9025683403015137
			],
			"min":[
				-1.889944076538086,
				-1.9378832578659058,
				-0.00278389360755682
			],
			"type":"VEC3"
		},
		{
			"bufferView":18,
			"componentType":5126,
			"count":18329,
			"type":"VEC3"
		},
		{
			"bufferView":19,
			"componentType":5126,
			"count":18329,
			"type":"VEC2"
		},
		{
			"bufferView":20,
			"componentType":5126,
			"count":18329,
			"type":"VEC2"
		},
		{
			"bufferView":21,
			"componentType":5126,
			"count":18329,
			"type":"VEC2"
		},
		{
			"bufferView":22,
			"componentType":5126,
			"count":18329,
			"type":"VEC2"
		},
		{
			"bufferView":23,
			"componentType":5126,
			"count":18329,
			"type":"VEC2"
		},
		{
			"bufferView":24,
			"componentType":5126,
			"count":18329,
			"type":"VEC2"
		},
		{
			"bufferView":25,
			"componentType":5126,
			"count":18329,
			"type":"VEC2"
		},
		{
			"bufferView":26,
			"componentType":5126,
			"count":18329,
			"type":"VEC2"
		},
		{
			"bufferView":27,
			"componentType":5123,
			"count":40164,
			"type":"SCALAR"
		}
	],
	"bufferViews":[
		{
			"buffer":0,
			"byteLength":240660,
			"byteOffset":0,
			"target":34962
		},
		{
			"buffer":0,
			"byteLength":240660,
			"byteOffset":240660,
			"target":34962
		},
		{
			"buffer":0,
			"byteLength":232332,
			"byteOffset":481320,
			"target":34963
		},
		{
			"buffer":0,
			"byteLength":67716,
			"byteOffset":713652,
			"target":34962
		},
		{
			"buffer":0,
			"byteLength":67716,
			"byteOffset":781368,
			"target":34962
		},
		{
			"buffer":0,
			"byteLength":63408,
			"byteOffset":849084,
			"target":34963
		},
		{
			"buffer":0,
			"byteLength":2220,
			"byteOffset":912492,
			"target":34962
		},
		{
			"buffer":0,
			"byteLength":2220,
			"byteOffset":914712,
			"target":34962
		},
		{
			"buffer":0,
			"byteLength":1480,
			"byteOffset":916932,
			"target":34962
		},
		{
			"buffer":0,
			"byteLength":1480,
			"byteOffset":918412,
			"target":34962
		},
		{
			"buffer":0,
			"byteLength":1480,
			"byteOffset":919892,
			"target":34962
		},
		{
			"buffer":0,
			"byteLength":1480,
			"byteOffset":921372,
			"target":34962
		},
		{
			"buffer":0,
			"byteLength":1480,
			"byteOffset":922852,
			"target":34962
		},
		{
			"buffer":0,
			"byteLength":1480,
			"byteOffset":924332,
			"target":34962
		},
		{
			"buffer":0,
			"byteLength":1480,
			"byteOffset":925812,
			"target":34962
		},
		{
			"buffer":0,
			"byteLength":1480,
			"byteOffset":927292,
			"target":34962
		},
		{
			"buffer":0,
			"byteLength":504,
			"byteOffset":928772,
			"target":34963
		},
		{
			"buffer":0,
			"byteLength":219948,
			"byteOffset":929276,
			"target":34962
		},
		{
			"buffer":0,
			"byteLength":219948,
			"byteOffset":1149224,
			"target":34962
		},
		{
			"buffer":0,
			"byteLength":146632,
			"byteOffset":1369172,
			"target":34962
		},
		{
			"buffer":0,
			"byteLength":146632,
			"byteOffset":1515804,
			"target":34962
		},
		{
			"buffer":0,
			"byteLength":146632,
			"byteOffset":1662436,
			"target":34962
		},
		{
			"buffer":0,
			"byteLength":146632,
			"byteOffset":1809068,
			"target":34962
		},
		{
			"buffer":0,
			"byteLength":146632,
			"byteOffset":1955700,
			"target":34962
		},
		{
			"buffer":0,
			"byteLength":146632,
			"byteOffset":2102332,
			"target":34962
		},
		{
			"buffer":0,
			"byteLength":146632,
			"byteOffset":2248964,
			"target":34962
		},
		{
			"buffer":0,
			"byteLength":146632,
			"byteOffset":2395596,
			"target":34962
		},
		{
			"buffer":0,
			"byteLength":80328,
			"byteOffset":2542228,
			"target":34963
		}
	],
	"buffers":[
		{
			"byteLength":2622556,
			"uri":"scene.bin"
		}
	]
}
