{
	"asset":{
		"generator":"Khronos glTF Blender I/O v3.6.27",
		"version":"2.0"
	},
	"extensionsUsed":[
		"KHR_materials_transmission",
		"KHR_materials_specular"
	],
	"scene":0,
	"scenes":[
		{
			"name":"Scene",
			"nodes":[
				6
			]
		}
	],
	"nodes":[
		{
			"mesh":0,
			"name":"Cylinder_Material.006_0"
		},
		{
			"children":[
				0
			],
			"name":"Cylinder",
			"rotation":[
				-0.7071067094802856,
				0,
				0,
				0.7071068286895752
			]
		},
		{
			"mesh":1,
			"name":"Gem_Material.002_0"
		},
		{
			"children":[
				2
			],
			"name":"Gem",
			"translation":[
				0,
				0,
				2.2994697093963623
			]
		},
		{
			"children":[
				1,
				3
			],
			"name":"RootNode"
		},
		{
			"children":[
				4
			],
			"name":"392bd8cb0d3c4dde952ea0ee3b82798a.fbx",
			"rotation":[
				0.7071068286895752,
				0,
				0,
				0.7071068286895752
			]
		},
		{
			"children":[
				5
			],
			"name":"Sketchfab_model",
			"rotation":[
				-0.9343760013580322,
				-0.007176774553954601,
				0.012274110689759254,
				0.3560047149658203
			]
		}
	],
	"materials":[
		{
			"doubleSided":true,
			"name":"Material.006",
			"pbrMetallicRoughness":{
				"baseColorFactor":[
					1,
					0.7471590042114258,
					0.1971990019083023,
					1
				],
				"metallicFactor":0.985907793045044,
				"roughnessFactor":0.022857213392853737
			}
		},
		{
			"alphaMode":"BLEND",
			"doubleSided":true,
			"extensions":{
				"KHR_materials_transmission":{
					"transmissionFactor":1
				},
				"KHR_materials_specular":{
					"specularColorFactor":[
						1,
						1,
						1
					]
				}
			},
			"name":"Material.002",
			"pbrMetallicRoughness":{
				"baseColorFactor":[
					0,
					0,
					0,
					0.25
				],
				"roughnessFactor":0.05942875146865845
			}
		}
	],
	"meshes":[
		{
			"name":"Cylinder_Material.006_0",
			"primitives":[
				{
					"attributes":{
						"POSITION":0,
						"NORMAL":1,
						"TEXCOORD_0":2
					},
					"indices":3,
					"material":0
				}
			]
		},
		{
			"name":"Gem_Material.002_0",
			"primitives":[
				{
					"attributes":{
						"POSITION":4,
						"NORMAL":5
					},
					"indices":6,
					"material":1
				}
			]
		}
	],
	"accessors":[
		{
			"bufferView":0,
			"componentType":5126,
			"count":1221,
			"max":[
				1.8091672658920288,
				1.809167742729187,
				0.34294217824935913
			],
			"min":[
				-1.8091672658920288,
				-2.4297561645507812,
				-0.3429422676563263
			],
			"type":"VEC3"
		},
		{
			"bufferView":1,
			"componentType":5126,
			"count":1221,
			"type":"VEC3"
		},
		{
			"bufferView":2,
			"componentType":5126,
			"count":1221,
			"type":"VEC2"
		},
		{
			"bufferView":3,
			"componentType":5123,
			"count":5730,
			"type":"SCALAR"
		},
		{
			"bufferView":4,
			"componentType":5126,
			"count":145,
			"max":[
				0.42280313372612,
				0.4228031635284424,
				0.16017362475395203
			],
			"min":[
				-0.42280313372612,
				-0.4228031635284424,
				-0.3661111295223236
			],
			"type":"VEC3"
		},
		{
			"bufferView":5,
			"componentType":5126,
			"count":145,
			"type":"VEC3"
		},
		{
			"bufferView":6,
			"componentType":5123,
			"count":192,
			"type":"SCALAR"
		}
	],
	"bufferViews":[
		{
			"buffer":0,
			"byteLength":14652,
			"byteOffset":0,
			"target":34962
		},
		{
			"buffer":0,
			"byteLength":14652,
			"byteOffset":14652,
			"target":34962
		},
		{
			"buffer":0,
			"byteLength":9768,
			"byteOffset":29304,
			"target":34962
		},
		{
			"buffer":0,
			"byteLength":11460,
			"byteOffset":39072,
			"target":34963
		},
		{
			"buffer":0,
			"byteLength":1740,
			"byteOffset":50532,
			"target":34962
		},
		{
			"buffer":0,
			"byteLength":1740,
			"byteOffset":52272,
			"target":34962
		},
		{
			"buffer":0,
			"byteLength":384,
			"byteOffset":54012,
			"target":34963
		}
	],
	"buffers":[
		{
			"byteLength":54396,
			"uri":"scene.bin"
		}
	]
}
