{
	"asset":{
		"generator":"Khronos glTF Blender I/O v3.6.27",
		"version":"2.0"
	},
	"extensionsUsed":[
		"KHR_materials_transmission"
	],
	"scene":0,
	"scenes":[
		{
			"name":"Scene",
			"nodes":[
				6
			]
		}
	],
	"nodes":[
		{
			"mesh":0,
			"name":"clean23_diamond_0",
			"rotation":[
				-0.39813536405563354,
				0.4043503403663635,
				-0.0743628516793251,
				0.8200361132621765
			],
			"translation":[
				-0.0114813931286335,
				0.02296161651611328,
				-0.00032769516110420227
			]
		},
		{
			"mesh":1,
			"name":"clean23_gold_0",
			"rotation":[
				-0.39813536405563354,
				0.4043503403663635,
				-0.0743628516793251,
				0.8200361132621765
			],
			"translation":[
				-0.0114813931286335,
				0.02296161651611328,
				-0.00032769516110420227
			]
		},
		{
			"mesh":2,
			"name":"clean23_gold_0.001",
			"rotation":[
				-0.39813536405563354,
				0.4043503403663635,
				-0.0743628516793251,
				0.8200361132621765
			],
			"translation":[
				-0.0114813931286335,
				0.02296161651611328,
				-0.00032769516110420227
			]
		},
		{
			"children":[
				0,
				1,
				2
			],
			"name":"clean23",
			"rotation":[
				1,
				0,
				0,
				0
			]
		},
		{
			"children":[
				3
			],
			"name":"RootNode",
			"rotation":[
				1,
				0,
				0,
				0
			]
		},
		{
			"children":[
				4
			],
			"name":"2ReducedLess.fbx",
			"rotation":[
				1,
				0,
				0,
				0
			]
		},
		{
			"children":[
				5
			],
			"name":"Sketchfab_model",
			"rotation":[
				1,
				0,
				0,
				0
			]
		}
	],
	"materials":[
		{
			"alphaMode":"BLEND",
			"doubleSided":true,
			"emissiveFactor":[
				1,
				1,
				1
			],
			"emissiveTexture":{
				"index":0
			},
			"extensions":{
				"KHR_materials_transmission":{
					"transmissionFactor":1,
					"transmissionTexture":{
						"index":1
					}
				}
			},
			"name":"diamond",
			"normalTexture":{
				"index":2,
				"scale":0.24561737477779388
			},
			"pbrMetallicRoughness":{
				"baseColorFactor":[
					0.35852694511413574,
					0.6675575375556946,
					0.9700679779052734,
					1
				],
				"baseColorTexture":{
					"index":3
				},
				"metallicRoughnessTexture":{
					"index":4
				},
				"roughnessFactor":0.3919588327407837
			}
		},
		{
			"doubleSided":true,
			"name":"gold",
			"normalTexture":{
				"index":5
			},
			"pbrMetallicRoughness":{
				"baseColorFactor":[
					0.8741016983985901,
					0.9622104167938232,
					1,
					1
				],
				"metallicRoughnessTexture":{
					"index":6
				}
			}
		}
	],
	"meshes":[
		{
			"name":"clean23_diamond_0",
			"primitives":[
				{
					"attributes":{
						"POSITION":0,
						"NORMAL":1,
						"TEXCOORD_0":2
					},
					"indices":3,
					"material":0
				}
			]
		},
		{
			"name":"clean23_gold_0",
			"primitives":[
				{
					"attributes":{
						"POSITION":4,
						"NORMAL":5,
						"TEXCOORD_0":6
					},
					"indices":7,
					"material":1
				}
			]
		},
		{
			"name":"clean23_gold_0.001",
			"primitives":[
				{
					"attributes":{
						"POSITION":8,
						"NORMAL":9,
						"TEXCOORD_0":10
					},
					"indices":11,
					"material":1
				}
			]
		}
	],
	"textures":[
		{
			"sampler":0,
			"source":0
		},
		{
			"sampler":0,
			"source":1
		},
		{
			"sampler":0,
			"source":2
		},
		{
			"sampler":0,
			"source":3
		},
		{
			"sampler":0,
			"source":4
		},
		{
			"sampler":0,
			"source":5
		},
		{
			"sampler":0,
			"source":6
		}
	],
	"images":[
		{
			"mimeType":"image/png",
			"name":"diamond_emissive",
			"uri":"diamond_emissive.png"
		},
		{
			"mimeType":"image/png",
			"name":"diamond_transmission",
			"uri":"diamond_transmission.png"
		},
		{
			"mimeType":"image/png",
			"name":"diamond_normal",
			"uri":"diamond_normal.png"
		},
		{
			"mimeType":"image/png",
			"name":"diamond_baseColor",
			"uri":"diamond_baseColor.png"
		},
		{
			"mimeType":"image/png",
			"name":"diamond_metallicRoughness",
			"uri":"diamond_metallicRoughness.png"
		},
		{
			"mimeType":"image/png",
			"name":"gold_normal",
			"uri":"gold_normal.png"
		},
		{
			"mimeType":"image/png",
			"name":"gold_metallicRoughness",
			"uri":"gold_metallicRoughness.png"
		}
	],
	"accessors":[
		{
			"bufferView":0,
			"componentType":5126,
			"count":259,
			"max":[
				-0.4793446660041809,
				2.1396350860595703,
				1.9108054637908936
			],
			"min":[
				-1.64859139919281,
				0.9421979188919067,
				0.8008355498313904
			],
			"type":"VEC3"
		},
		{
			"bufferView":1,
			"componentType":5126,
			"count":259,
			"type":"VEC3"
		},
		{
			"bufferView":2,
			"componentType":5126,
			"count":259,
			"type":"VEC2"
		},
		{
			"bufferView":3,
			"componentType":5123,
			"count":708,
			"type":"SCALAR"
		},
		{
			"bufferView":4,
			"componentType":5126,
			"count":65591,
			"max":[
				1.7130240201950073,
				2.0786523818969727,
				1.8780734539031982
			],
			"min":[
				-1.6456645727157593,
				-1.7915657758712769,
				-1.996048927307129
			],
			"type":"VEC3"
		},
		{
			"bufferView":5,
			"componentType":5126,
			"count":65591,
			"type":"VEC3"
		},
		{
			"bufferView":6,
			"componentType":5126,
			"count":65591,
			"type":"VEC2"
		},
		{
			"bufferView":7,
			"componentType":5125,
			"count":220605,
			"type":"SCALAR"
		},
		{
			"bufferView":8,
			"componentType":5126,
			"count":59514,
			"max":[
				1.717028260231018,
				2.08878231048584,
				1.8898378610610962
			],
			"min":[
				-1.6861923933029175,
				-1.7915657758712769,
				-1.997619390487671
			],
			"type":"VEC3"
		},
		{
			"bufferView":9,
			"componentType":5126,
			"count":59514,
			"type":"VEC3"
		},
		{
			"bufferView":10,
			"componentType":5126,
			"count":59514,
			"type":"VEC2"
		},
		{
			"bufferView":11,
			"componentType":5123,
			"count":156981,
			"type":"SCALAR"
		}
	],
	"bufferViews":[
		{
			"buffer":0,
			"byteLength":3108,
			"byteOffset":0,
			"target":34962
		},
		{
			"buffer":0,
			"byteLength":3108,
			"byteOffset":3108,
			"target":34962
		},
		{
			"buffer":0,
			"byteLength":2072,
			"byteOffset":6216,
			"target":34962
		},
		{
			"buffer":0,
			"byteLength":1416,
			"byteOffset":8288,
			"target":34963
		},
		{
			"buffer":0,
			"byteLength":787092,
			"byteOffset":9704,
			"target":34962
		},
		{
			"buffer":0,
			"byteLength":787092,
			"byteOffset":796796,
			"target":34962
		},
		{
			"buffer":0,
			"byteLength":524728,
			"byteOffset":1583888,
			"target":34962
		},
		{
			"buffer":0,
			"byteLength":882420,
			"byteOffset":2108616,
			"target":34963
		},
		{
			"buffer":0,
			"byteLength":714168,
			"byteOffset":2991036,
			"target":34962
		},
		{
			"buffer":0,
			"byteLength":714168,
			"byteOffset":3705204,
			"target":34962
		},
		{
			"buffer":0,
			"byteLength":476112,
			"byteOffset":4419372,
			"target":34962
		},
		{
			"buffer":0,
			"byteLength":313962,
			"byteOffset":4895484,
			"target":34963
		}
	],
	"samplers":[
		{
			"magFilter":9729,
			"minFilter":9987
		}
	],
	"buffers":[
		{
			"byteLength":5209448,
			"uri":"scene.bin"
		}
	]
}
