<svg xmlns="http://www.w3.org/2000/svg" viewBox="0 0 64 64"><g id="Layer_10" data-name="Layer 10"><path d="M38.29,14.41l4-5.49A.77.77,0,0,0,42.85,8a.74.74,0,0,0-.74-.88c-.14-.1-3.87-4-3.94-3.83h0c-.31-.13-11.42,0-11.72,0a.45.45,0,0,0-.23,0h0L26,3.37,26,3.43a.44.44,0,0,0-.14.13L22.24,7.12c-.95,0-1,1.6-.18,1.8l4.08,5.6c-28.81,6.42-23.3,47.92,6.38,46.39C62.62,62.38,67.65,20.21,38.29,14.41ZM32.52,58.9C6.68,56,7,19,32.52,16.21,58.08,19.1,58.34,55.93,32.52,58.9Zm3-50-1.72,5.19c-1.08.09-2.1,0-3.19,0L28.86,8.94Zm1.1,5.26c-.41,0-.82-.06-1.24-.07l1.72-5.19h3.35ZM40,7.12H37.68l.58-1.73Zm-3.1-2.37L36.1,7.12H28.25l-.79-2.37Zm-10.8.64.58,1.73H24.36ZM23.93,8.94h3.35L29,14.16c-.41,0-.81.06-1.21.11ZM9.06,37.55A21.44,21.44,0,0,1,21.42,18.14C7.72,27.19,7.73,47.93,21.42,57A21.46,21.46,0,0,1,9.06,37.55ZM43.62,57c13.7-9,13.7-29.79,0-38.83C60,25.77,60,49.35,43.62,57Z"/></g></svg>