<?xml version="1.0" encoding="UTF-8" standalone="no"?> <svg id="Layer_1" data-name="Layer 1" xmlns="http://www.w3.org/2000/svg" viewBox="0 0 512 512"><title>Earth</title><path d="M421.934,90.066A234.667,234.667,0,1,0,90.065,421.934,234.667,234.667,0,1,0,421.934,90.066ZM440.7,149.333H426.566a7.483,7.483,0,0,1-5.257-2.178l-2.2-2.2a28.969,28.969,0,0,0-20.342-8.425H384.944a28.944,28.944,0,0,0-12.881,3.037l-17.923,8.972a7.458,7.458,0,0,1-3.35.79h-3.221a7.444,7.444,0,0,1-7.435-7.435,7.433,7.433,0,0,1,2.178-5.257l18.23-18.231a7.5,7.5,0,0,1,1.917-1.392l19.149-9.569a7.5,7.5,0,0,1,3.336-.783H408.19A214.649,214.649,0,0,1,440.7,149.333ZM145.534,73.553l25.475,17.693a8.9,8.9,0,0,1,2.874,3.323l3.033,6.055a30.025,30.025,0,0,0,27.016,16.708h21.717a8.885,8.885,0,0,1,8.875,8.874v.384a8.816,8.816,0,0,1-4.909,7.932l-52.106,26.058a30.322,30.322,0,0,0-3.249,1.882l-26.674,17.786a30.372,30.372,0,0,0-10.265,11.629l-3.965,7.948a30.145,30.145,0,0,0,0,27.007,8.877,8.877,0,0,1-1.672,10.256l-.582.583A8.843,8.843,0,0,1,120.266,239L86.208,218.577a8.869,8.869,0,0,1-3.848-4.81l-8.384-25.141a10.666,10.666,0,0,0-10.119-7.292,15,15,0,0,1-7.107-1.544A214.563,214.563,0,0,1,145.534,73.553ZM42.666,256a212.851,212.851,0,0,1,7.42-55.8,34.408,34.408,0,0,0,5.831,1.712l6.2,18.6a30.207,30.207,0,0,0,13.115,16.365l34.049,20.42a30.136,30.136,0,0,0,36.9-4.535l.583-.583a30.185,30.185,0,0,0,5.667-34.873,8.81,8.81,0,0,1,.005-7.941l3.957-7.935a8.979,8.979,0,0,1,3.028-3.429l26.666-17.781a8.912,8.912,0,0,1,.955-.551l52.1-26.055a30.028,30.028,0,0,0,16.707-27.016v-.384A30.242,30.242,0,0,0,225.649,96H203.932A8.818,8.818,0,0,1,196,91.084l-3.036-6.062a30.284,30.284,0,0,0-9.781-11.3L166.7,62.282A212.972,212.972,0,0,1,383.9,85.364a28.924,28.924,0,0,0-11.828,3L352.9,97.949a28.849,28.849,0,0,0-7.44,5.378l-18.228,18.228A28.771,28.771,0,0,0,318.8,141.9a28.8,28.8,0,0,0,28.769,28.768h3.221a29.025,29.025,0,0,0,12.881-3.037l17.936-8.979a7.5,7.5,0,0,1,3.336-.783h13.825a7.486,7.486,0,0,1,5.257,2.178l2.2,2.2a28.965,28.965,0,0,0,20.343,8.427H451.5a211.692,211.692,0,0,1,8.354,22.4H419.324a10.671,10.671,0,0,1-3.379-.551l-22.825-7.609a32.021,32.021,0,0,0-17.877-.684l-33.076,8.272a31.925,31.925,0,0,0-9.965,4.411l-19.42,12.947a31.925,31.925,0,0,0-14.258,26.627V253.6a31.926,31.926,0,0,0,1.646,10.123l4.7,14.121a31.958,31.958,0,0,0,30.366,21.89h.918a32.054,32.054,0,0,0,14.305-3.377l7.3-3.648a10.667,10.667,0,0,1,15.433,9.543v3.115a32.054,32.054,0,0,0,3.377,14.305l16.84,33.681a10.637,10.637,0,0,1,1.117,4.749v23.5a31.951,31.951,0,0,0,1.647,10.128q.1.312.228.619l7.116,17.619A212.591,212.591,0,0,1,256,469.333C138.367,469.333,42.666,373.632,42.666,256ZM419.58,392.777l-3.255-8.061a10.634,10.634,0,0,1-.468-3.116V358.1A32.054,32.054,0,0,0,412.48,343.8l-16.84-33.681a10.637,10.637,0,0,1-1.117-4.749v-3.115a31.831,31.831,0,0,0-17.694-28.624,32,32,0,0,0-28.613,0l-7.312,3.656a10.637,10.637,0,0,1-4.749,1.117h-.918a10.654,10.654,0,0,1-10.125-7.3l-4.705-14.128a10.64,10.64,0,0,1-.551-3.376V236.48a10.641,10.641,0,0,1,4.754-8.874l19.436-12.957a10.644,10.644,0,0,1,3.315-1.463l33.048-8.265a10.707,10.707,0,0,1,5.973.228l22.817,7.606a31.977,31.977,0,0,0,10.124,1.645h45.925A213.1,213.1,0,0,1,419.58,392.777Z"/><path d="M274.673,296.149,246.582,282.1a2.5,2.5,0,0,1-1.392-2.252A23.879,23.879,0,0,0,221.339,256h-2.687a2.535,2.535,0,0,1-1.78-.738l-2.944-2.944a23.7,23.7,0,0,0-16.866-6.985h-18.39a23.722,23.722,0,0,0-21.333,13.184l-5.057,10.115a2.532,2.532,0,0,1-1.126,1.126h0l-10.112,5.057a23.721,23.721,0,0,0-13.185,21.333v9.193a23.776,23.776,0,0,0,4.006,13.23l17.176,25.765a23.883,23.883,0,0,0,9.178,8.1l10.915,5.457a2.5,2.5,0,0,1,1.392,2.252v42.072a23.989,23.989,0,0,0,2.518,10.667l8.32,16.639a23.808,23.808,0,0,0,4.466,6.2l13.1,13.1a23.821,23.821,0,0,0,27.533,4.468l7.063-3.532A23.692,23.692,0,0,0,246.248,433.1l8.619-43.1a2.512,2.512,0,0,1,.69-1.286l16.309-16.309a23.985,23.985,0,0,0,5.762-9.324l9-27.011a23.793,23.793,0,0,0,1.226-7.548V317.482A23.722,23.722,0,0,0,274.673,296.149Zm-8.149,32.378a2.48,2.48,0,0,1-.13.8l-9.005,27.018a2.528,2.528,0,0,1-.608.983l-16.309,16.309a23.781,23.781,0,0,0-6.523,12.189l-8.619,43.1a2.5,2.5,0,0,1-1.344,1.757l-7.066,3.533a2.509,2.509,0,0,1-2.906-.472l-13.1-13.1a2.53,2.53,0,0,1-.472-.653l-8.316-16.631a2.548,2.548,0,0,1-.268-1.131V360.149a23.722,23.722,0,0,0-13.184-21.333l-10.915-5.457a2.531,2.531,0,0,1-.969-.855l-17.176-25.765a2.508,2.508,0,0,1-.423-1.4v-9.193a2.5,2.5,0,0,1,1.393-2.252L160.7,288.84a24,24,0,0,0,10.668-10.667l5.057-10.115a2.5,2.5,0,0,1,2.252-1.392h18.39a2.535,2.535,0,0,1,1.78.738l2.944,2.944a23.7,23.7,0,0,0,16.866,6.985h2.688a2.52,2.52,0,0,1,2.518,2.518,23.722,23.722,0,0,0,13.184,21.333l28.091,14.046a2.5,2.5,0,0,1,1.392,2.252Z"/></svg>